<svg width="550" height="170" viewBox="0 0 550 170" fill="none" xmlns="http://www.w3.org/2000/svg">
<path d="M121.2 0V4H107.6L65 112H59.8L9.6 4H0V0H56.6V4H46.8L76 71L102.4 4H86.4V0H121.2Z" fill="white"/>
<path d="M191.195 108C211.195 108 221.195 96.6667 221.195 74H225.195V112H131.195V108H141.195V4H131.195V0H223.195V34H219.195C219.195 22.1333 216.795 14.2 211.995 10.2C207.329 6.06666 199.729 4 189.195 4H171.195V52H179.195C188.795 52 194.862 50.8 197.395 48.4C199.929 46 201.195 41.2 201.195 34H205.195V74H201.195C201.195 66.5333 199.929 61.6667 197.395 59.4C194.862 57.1333 188.795 56 179.195 56H171.195V108H191.195Z" fill="white"/>
<path d="M382.98 4H372.98V108H382.98V112H332.98V108H342.98V11.4L303.38 114H298.78L254.38 8.6V108H270.38V112H238.38V108H250.38V4H238.18V0H282.78L313.98 75L342.98 0H382.98V4Z" fill="white"/>
<path d="M457.016 108C477.016 108 487.016 96.6667 487.016 74H491.016V112H397.016V108H407.016V4H397.016V0H489.016V34H485.016C485.016 22.1333 482.616 14.2 477.816 10.2C473.149 6.06666 465.549 4 455.016 4H437.016V52H445.016C454.616 52 460.682 50.8 463.216 48.4C465.749 46 467.016 41.2 467.016 34H471.016V74H467.016C467.016 66.5333 465.749 61.6667 463.216 59.4C460.682 57.1333 454.616 56 445.016 56H437.016V108H457.016Z" fill="white"/>
<path d="M170.256 151.92C169.354 151.92 168.655 152.027 168.161 152.242C167.667 152.457 167.302 152.769 167.065 153.177C166.829 153.585 166.679 154.09 166.614 154.691C166.571 155.293 166.55 155.97 166.55 156.722V166.809C164.788 167.84 162.919 168.592 160.942 169.064C158.987 169.559 156.979 169.806 154.916 169.806C152.402 169.806 150.039 169.43 147.826 168.678C145.613 167.926 143.68 166.841 142.025 165.423C140.393 163.983 139.093 162.222 138.126 160.138C137.181 158.054 136.708 155.68 136.708 153.016C136.708 150.566 137.148 148.268 138.029 146.119C138.932 143.971 140.167 142.102 141.735 140.512C143.304 138.9 145.151 137.644 147.278 136.741C149.427 135.817 151.736 135.355 154.207 135.355C155.453 135.355 156.603 135.463 157.655 135.678C158.729 135.893 159.664 136.129 160.459 136.387C161.275 136.623 161.931 136.849 162.425 137.063C162.94 137.278 163.284 137.386 163.456 137.386C163.671 137.386 163.854 137.311 164.004 137.16C164.176 136.988 164.305 136.795 164.391 136.58C164.498 136.365 164.573 136.15 164.616 135.936C164.659 135.699 164.691 135.506 164.713 135.355H165.551L166.421 145.7H165.551C165.121 144.39 164.584 143.197 163.939 142.123C163.295 141.049 162.532 140.136 161.651 139.384C160.771 138.61 159.75 138.02 158.59 137.611C157.43 137.203 156.119 136.999 154.658 136.999C152.51 136.999 150.662 137.418 149.115 138.256C147.568 139.094 146.29 140.211 145.28 141.607C144.271 143.004 143.519 144.604 143.024 146.409C142.552 148.214 142.315 150.072 142.315 151.984C142.315 153.896 142.562 155.809 143.057 157.721C143.572 159.633 144.346 161.362 145.377 162.909C146.43 164.435 147.751 165.681 149.341 166.647C150.931 167.593 152.821 168.065 155.013 168.065C156.194 168.065 157.354 167.926 158.493 167.646C159.653 167.346 160.749 166.895 161.78 166.293V156.722C161.78 155.819 161.737 155.067 161.651 154.466C161.565 153.864 161.372 153.381 161.071 153.016C160.771 152.65 160.341 152.393 159.782 152.242C159.224 152.07 158.461 151.963 157.494 151.92V151.05H170.256V151.92Z" fill="white"/>
<path d="M194.071 157.463C194.071 159.074 193.813 160.621 193.298 162.104C192.804 163.586 192.084 164.896 191.139 166.035C190.193 167.152 189.044 168.055 187.69 168.742C186.337 169.408 184.812 169.741 183.114 169.741C181.503 169.741 180.042 169.419 178.731 168.774C177.442 168.13 176.336 167.271 175.412 166.196C174.51 165.101 173.801 163.854 173.285 162.458C172.791 161.062 172.544 159.611 172.544 158.107C172.544 156.539 172.791 155.035 173.285 153.596C173.801 152.156 174.531 150.878 175.477 149.761C176.422 148.644 177.561 147.752 178.893 147.086C180.225 146.42 181.718 146.087 183.372 146.087C184.983 146.087 186.444 146.388 187.755 146.989C189.087 147.569 190.215 148.375 191.139 149.406C192.084 150.438 192.804 151.651 193.298 153.048C193.813 154.423 194.071 155.895 194.071 157.463ZM189.527 159.364C189.527 158.655 189.484 157.871 189.398 157.012C189.312 156.152 189.162 155.293 188.947 154.434C188.732 153.553 188.453 152.715 188.109 151.92C187.766 151.104 187.336 150.384 186.82 149.761C186.305 149.116 185.692 148.611 184.983 148.246C184.274 147.859 183.469 147.666 182.566 147.666C181.471 147.666 180.568 147.945 179.859 148.504C179.15 149.041 178.592 149.729 178.184 150.566C177.775 151.383 177.496 152.285 177.346 153.273C177.195 154.262 177.12 155.196 177.12 156.077C177.12 156.786 177.163 157.57 177.249 158.43C177.356 159.289 177.518 160.159 177.732 161.04C177.947 161.921 178.227 162.78 178.57 163.618C178.936 164.435 179.376 165.165 179.892 165.81C180.407 166.454 181.009 166.97 181.696 167.356C182.405 167.743 183.211 167.937 184.113 167.937C185.273 167.937 186.208 167.668 186.917 167.131C187.626 166.572 188.174 165.874 188.561 165.036C188.947 164.177 189.205 163.242 189.334 162.232C189.463 161.223 189.527 160.267 189.527 159.364Z" fill="white"/>
<path d="M213.987 169.741H212.859V164.972C212.365 165.509 211.839 166.057 211.28 166.615C210.722 167.174 210.12 167.689 209.476 168.162C208.853 168.613 208.187 168.989 207.478 169.29C206.79 169.591 206.06 169.741 205.286 169.741C204.083 169.741 203.105 169.473 202.354 168.936C201.602 168.398 201.011 167.711 200.581 166.873C200.173 166.035 199.894 165.101 199.743 164.069C199.614 163.038 199.55 162.039 199.55 161.072V151.114C199.55 150.384 199.485 149.793 199.356 149.342C199.228 148.891 199.013 148.547 198.712 148.311C198.411 148.053 198.014 147.881 197.52 147.795C197.047 147.709 196.467 147.666 195.779 147.666V146.764H203.643V161.62C203.643 162.265 203.686 162.888 203.771 163.489C203.879 164.091 204.062 164.628 204.319 165.101C204.599 165.573 204.975 165.96 205.447 166.261C205.941 166.54 206.564 166.68 207.316 166.68C207.854 166.68 208.38 166.583 208.896 166.39C209.411 166.196 209.905 165.949 210.378 165.648C210.851 165.348 211.291 165.015 211.699 164.649C212.129 164.263 212.516 163.887 212.859 163.521V150.921C212.859 150.255 212.784 149.707 212.634 149.277C212.505 148.848 212.29 148.515 211.989 148.278C211.71 148.042 211.334 147.881 210.861 147.795C210.41 147.709 209.873 147.666 209.25 147.666V146.764H216.888V163.135C216.888 163.371 216.898 163.683 216.92 164.069C216.941 164.456 216.995 164.832 217.081 165.197C217.188 165.541 217.339 165.842 217.532 166.1C217.747 166.357 218.037 166.486 218.402 166.486C219.047 166.486 219.713 166.357 220.4 166.1L220.723 166.97L213.987 169.741Z" fill="white"/>
<path d="M237.609 148.794C237.609 149.396 237.384 149.922 236.933 150.373C236.503 150.824 235.987 151.05 235.386 151.05C234.978 151.05 234.623 150.964 234.322 150.792C234.021 150.599 233.731 150.405 233.452 150.212C233.194 149.997 232.947 149.804 232.711 149.632C232.475 149.438 232.217 149.342 231.938 149.342C231.465 149.342 230.938 149.707 230.358 150.438C229.778 151.168 229.23 152.049 228.715 153.08V163.844C228.715 165.262 228.983 166.325 229.521 167.034C230.058 167.722 231.089 168.065 232.614 168.065V169H221.109V168.065C221.947 168.065 222.592 168.001 223.043 167.872C223.516 167.743 223.87 167.518 224.106 167.195C224.343 166.873 224.482 166.454 224.525 165.938C224.59 165.401 224.622 164.746 224.622 163.973V154.369C224.622 153.596 224.601 152.908 224.558 152.307C224.536 151.684 224.461 151.157 224.332 150.728C224.203 150.276 223.999 149.933 223.72 149.696C223.462 149.46 223.097 149.342 222.624 149.342C222.151 149.342 221.646 149.449 221.109 149.664L220.852 148.794L227.716 146.087H228.715V151.114C228.994 150.599 229.327 150.051 229.714 149.471C230.101 148.891 230.53 148.354 231.003 147.859C231.497 147.344 232.023 146.925 232.582 146.603C233.162 146.259 233.785 146.087 234.451 146.087C234.838 146.087 235.225 146.151 235.611 146.28C235.998 146.388 236.331 146.56 236.61 146.796C236.911 147.032 237.147 147.322 237.319 147.666C237.513 147.988 237.609 148.364 237.609 148.794Z" fill="white"/>
<path d="M265.195 169V168.065C266.055 168.065 266.721 168.001 267.193 167.872C267.688 167.743 268.042 167.518 268.257 167.195C268.493 166.873 268.633 166.454 268.676 165.938C268.74 165.401 268.772 164.746 268.772 163.973V154.337C268.772 153.714 268.719 153.091 268.611 152.468C268.525 151.823 268.343 151.243 268.063 150.728C267.806 150.212 267.43 149.793 266.936 149.471C266.463 149.148 265.84 148.987 265.066 148.987C264.508 148.987 263.96 149.073 263.423 149.245C262.907 149.417 262.402 149.653 261.908 149.954C261.436 150.233 260.984 150.556 260.555 150.921C260.125 151.286 259.717 151.662 259.33 152.049V163.973C259.33 164.746 259.362 165.401 259.427 165.938C259.491 166.454 259.642 166.873 259.878 167.195C260.114 167.518 260.469 167.743 260.941 167.872C261.436 168.001 262.102 168.065 262.939 168.065V169H251.66V168.065C252.541 168.065 253.218 168.001 253.69 167.872C254.185 167.743 254.55 167.528 254.786 167.228C255.022 166.905 255.162 166.486 255.205 165.971C255.27 165.434 255.302 164.768 255.302 163.973V154.337C255.302 153.692 255.248 153.048 255.141 152.403C255.033 151.759 254.84 151.179 254.561 150.663C254.303 150.147 253.927 149.729 253.433 149.406C252.938 149.084 252.305 148.923 251.531 148.923C250.951 148.923 250.393 149.02 249.855 149.213C249.34 149.385 248.835 149.621 248.341 149.922C247.868 150.201 247.417 150.534 246.987 150.921C246.579 151.286 246.182 151.662 245.795 152.049V163.973C245.795 164.746 245.827 165.401 245.892 165.938C245.956 166.454 246.106 166.873 246.343 167.195C246.579 167.518 246.944 167.743 247.438 167.872C247.933 168.001 248.599 168.065 249.437 168.065V169H238.415V168.065C239.21 168.065 239.822 167.99 240.252 167.84C240.703 167.668 241.036 167.421 241.251 167.099C241.487 166.755 241.627 166.325 241.67 165.81C241.734 165.294 241.767 164.682 241.767 163.973V153.338C241.767 152.844 241.745 152.36 241.702 151.888C241.681 151.394 241.616 150.953 241.509 150.566C241.401 150.18 241.229 149.868 240.993 149.632C240.757 149.396 240.445 149.277 240.059 149.277C239.779 149.277 239.5 149.32 239.221 149.406C238.941 149.471 238.673 149.557 238.415 149.664L237.996 148.794L244.731 146.087H245.795V150.792C246.311 150.233 246.848 149.675 247.406 149.116C247.965 148.558 248.556 148.053 249.179 147.602C249.823 147.15 250.5 146.785 251.209 146.506C251.918 146.227 252.691 146.087 253.529 146.087C255.119 146.087 256.365 146.506 257.268 147.344C258.191 148.16 258.836 149.31 259.201 150.792C259.717 150.19 260.243 149.61 260.78 149.052C261.339 148.493 261.93 147.999 262.553 147.569C263.176 147.118 263.842 146.764 264.551 146.506C265.281 146.227 266.087 146.087 266.968 146.087C268.171 146.087 269.148 146.334 269.9 146.828C270.674 147.301 271.275 147.924 271.705 148.697C272.156 149.471 272.457 150.352 272.607 151.34C272.779 152.328 272.865 153.327 272.865 154.337V163.973C272.865 164.66 272.887 165.262 272.93 165.777C272.994 166.293 273.134 166.723 273.349 167.066C273.585 167.41 273.929 167.668 274.38 167.84C274.831 167.99 275.443 168.065 276.217 168.065V169H265.195Z" fill="white"/>
<path d="M297.067 160.879C296.896 162.039 296.552 163.156 296.036 164.23C295.542 165.283 294.897 166.218 294.103 167.034C293.308 167.851 292.384 168.506 291.331 169C290.3 169.494 289.172 169.741 287.947 169.741C286.357 169.741 284.95 169.408 283.726 168.742C282.522 168.076 281.513 167.195 280.696 166.1C279.88 165.004 279.268 163.769 278.859 162.394C278.451 160.997 278.247 159.568 278.247 158.107C278.247 156.496 278.451 154.971 278.859 153.531C279.289 152.07 279.923 150.792 280.761 149.696C281.62 148.601 282.694 147.73 283.983 147.086C285.294 146.42 286.819 146.087 288.56 146.087C289.892 146.087 291.084 146.312 292.137 146.764C293.189 147.215 294.081 147.849 294.812 148.665C295.542 149.46 296.101 150.416 296.487 151.533C296.874 152.629 297.067 153.832 297.067 155.143H281.695C281.695 156.346 281.856 157.57 282.179 158.816C282.501 160.062 282.995 161.201 283.661 162.232C284.327 163.242 285.165 164.08 286.175 164.746C287.206 165.391 288.42 165.713 289.816 165.713C290.676 165.713 291.438 165.584 292.104 165.326C292.792 165.047 293.394 164.671 293.909 164.198C294.446 163.704 294.908 163.135 295.295 162.49C295.682 161.824 296.025 161.115 296.326 160.363L297.067 160.879ZM291.976 153.757C291.976 153.026 291.879 152.307 291.686 151.598C291.514 150.867 291.224 150.233 290.815 149.696C290.429 149.138 289.935 148.687 289.333 148.343C288.731 147.999 288.012 147.827 287.174 147.827C286.336 147.827 285.595 147.999 284.95 148.343C284.306 148.665 283.747 149.105 283.274 149.664C282.823 150.201 282.458 150.835 282.179 151.565C281.921 152.274 281.76 153.005 281.695 153.757H291.976Z" fill="white"/>
<path d="M312.375 164.907C312.203 165.53 311.945 166.132 311.602 166.712C311.258 167.292 310.839 167.808 310.345 168.259C309.872 168.71 309.335 169.064 308.733 169.322C308.132 169.602 307.498 169.741 306.832 169.741C305.951 169.741 305.231 169.569 304.673 169.226C304.114 168.903 303.663 168.474 303.319 167.937C302.976 167.378 302.739 166.744 302.61 166.035C302.481 165.326 302.417 164.596 302.417 163.844V148.407H298.904V147.666C299.742 147.344 300.505 146.882 301.192 146.28C301.901 145.679 302.535 145.002 303.094 144.25C303.674 143.477 304.179 142.671 304.608 141.833C305.06 140.995 305.446 140.189 305.769 139.416H306.51V146.764H311.73V148.407H306.51V163.264C306.51 163.629 306.531 164.026 306.574 164.456C306.639 164.886 306.746 165.294 306.896 165.681C307.047 166.046 307.262 166.357 307.541 166.615C307.842 166.852 308.218 166.97 308.669 166.97C309.399 166.97 309.979 166.787 310.409 166.422C310.839 166.035 311.183 165.53 311.44 164.907H312.375Z" fill="white"/>
<path d="M353.883 160.557C353.883 161.996 353.593 163.285 353.013 164.424C352.433 165.562 351.659 166.529 350.692 167.324C349.747 168.119 348.651 168.731 347.405 169.161C346.159 169.591 344.87 169.806 343.538 169.806C342.657 169.806 341.776 169.698 340.896 169.483C340.015 169.29 339.177 169.075 338.382 168.839C337.608 168.603 336.899 168.388 336.255 168.194C335.61 167.979 335.084 167.872 334.676 167.872C334.418 167.872 334.192 167.937 333.999 168.065C333.827 168.173 333.677 168.323 333.548 168.517C333.44 168.71 333.354 168.914 333.29 169.129C333.226 169.365 333.183 169.591 333.161 169.806H332.291V158.43H333.161C333.333 159.826 333.666 161.104 334.16 162.265C334.654 163.425 335.31 164.424 336.126 165.262C336.942 166.078 337.92 166.723 339.059 167.195C340.219 167.646 341.529 167.872 342.99 167.872C343.785 167.872 344.569 167.765 345.343 167.55C346.138 167.313 346.836 166.97 347.438 166.519C348.061 166.067 348.565 165.509 348.952 164.843C349.339 164.155 349.532 163.36 349.532 162.458C349.532 161.513 349.274 160.664 348.759 159.912C348.265 159.139 347.609 158.43 346.793 157.785C345.977 157.119 345.042 156.496 343.989 155.916C342.937 155.314 341.862 154.713 340.767 154.111C339.692 153.51 338.629 152.876 337.576 152.21C336.523 151.544 335.589 150.813 334.772 150.019C333.956 149.202 333.29 148.311 332.774 147.344C332.28 146.355 332.033 145.238 332.033 143.992C332.033 142.639 332.291 141.436 332.807 140.383C333.344 139.309 334.053 138.406 334.934 137.676C335.814 136.924 336.824 136.354 337.963 135.968C339.123 135.56 340.337 135.355 341.604 135.355C342.335 135.355 343.076 135.452 343.828 135.646C344.58 135.839 345.289 136.054 345.955 136.29C346.643 136.505 347.266 136.709 347.824 136.902C348.383 137.096 348.845 137.192 349.21 137.192C349.468 137.192 349.683 137.128 349.854 136.999C350.026 136.87 350.177 136.72 350.306 136.548C350.435 136.354 350.531 136.15 350.596 135.936C350.682 135.721 350.746 135.527 350.789 135.355H351.724V146.699H350.789C350.682 145.41 350.402 144.196 349.951 143.058C349.5 141.897 348.888 140.898 348.114 140.061C347.362 139.201 346.438 138.524 345.343 138.03C344.269 137.515 343.044 137.257 341.669 137.257C340.938 137.257 340.229 137.375 339.542 137.611C338.854 137.848 338.231 138.191 337.673 138.643C337.136 139.072 336.695 139.599 336.352 140.222C336.029 140.823 335.868 141.511 335.868 142.284C335.868 143.187 336.126 144.003 336.642 144.733C337.157 145.464 337.834 146.141 338.672 146.764C339.531 147.387 340.498 147.988 341.572 148.568C342.646 149.127 343.742 149.707 344.859 150.309C345.998 150.889 347.104 151.512 348.179 152.178C349.253 152.844 350.209 153.585 351.047 154.401C351.906 155.218 352.594 156.131 353.109 157.141C353.625 158.129 353.883 159.268 353.883 160.557Z" fill="white"/>
<path d="M370.898 169V168.065C371.049 168.065 371.21 168.065 371.382 168.065C371.575 168.044 371.747 168.001 371.897 167.937C372.048 167.872 372.177 167.786 372.284 167.679C372.392 167.571 372.445 167.421 372.445 167.228C372.445 166.862 372.338 166.519 372.123 166.196C371.908 165.874 371.704 165.573 371.511 165.294L364.711 156.722V163.973C364.711 164.746 364.732 165.401 364.775 165.938C364.84 166.454 364.979 166.873 365.194 167.195C365.431 167.518 365.785 167.743 366.258 167.872C366.752 168.001 367.429 168.065 368.288 168.065V169H356.848V168.065C357.686 168.065 358.341 168.012 358.813 167.904C359.308 167.797 359.684 167.604 359.941 167.324C360.199 167.023 360.36 166.615 360.425 166.1C360.511 165.584 360.554 164.918 360.554 164.102V141.382C360.554 140.028 360.436 139.062 360.199 138.481C359.984 137.88 359.555 137.579 358.91 137.579C358.631 137.579 358.362 137.622 358.104 137.708C357.847 137.772 357.589 137.858 357.331 137.966L356.848 137.128L363.583 134.485H364.711V156.206L370.318 151.437C370.447 151.329 370.641 151.168 370.898 150.953C371.156 150.717 371.414 150.47 371.672 150.212C371.93 149.954 372.155 149.696 372.349 149.438C372.542 149.159 372.639 148.923 372.639 148.729C372.639 148.515 372.585 148.332 372.478 148.182C372.37 148.01 372.23 147.881 372.059 147.795C371.887 147.688 371.693 147.612 371.479 147.569C371.285 147.526 371.092 147.494 370.898 147.473V146.764H380.534V147.473C379.847 147.516 379.224 147.591 378.665 147.698C378.128 147.784 377.623 147.935 377.15 148.149C376.678 148.364 376.216 148.633 375.765 148.955C375.335 149.277 374.862 149.664 374.347 150.115L368.481 155.336L375.475 164.069C376.184 164.95 376.785 165.659 377.279 166.196C377.773 166.712 378.235 167.109 378.665 167.389C379.116 167.668 379.567 167.851 380.019 167.937C380.491 168.022 381.039 168.065 381.662 168.065V169H370.898Z" fill="white"/>
<path d="M402.062 160.879C401.89 162.039 401.546 163.156 401.03 164.23C400.536 165.283 399.892 166.218 399.097 167.034C398.302 167.851 397.378 168.506 396.325 169C395.294 169.494 394.166 169.741 392.941 169.741C391.352 169.741 389.944 169.408 388.72 168.742C387.517 168.076 386.507 167.195 385.69 166.1C384.874 165.004 384.262 163.769 383.854 162.394C383.445 160.997 383.241 159.568 383.241 158.107C383.241 156.496 383.445 154.971 383.854 153.531C384.283 152.07 384.917 150.792 385.755 149.696C386.614 148.601 387.688 147.73 388.978 147.086C390.288 146.42 391.813 146.087 393.554 146.087C394.886 146.087 396.078 146.312 397.131 146.764C398.184 147.215 399.075 147.849 399.806 148.665C400.536 149.46 401.095 150.416 401.481 151.533C401.868 152.629 402.062 153.832 402.062 155.143H386.689C386.689 156.346 386.851 157.57 387.173 158.816C387.495 160.062 387.989 161.201 388.655 162.232C389.321 163.242 390.159 164.08 391.169 164.746C392.2 165.391 393.414 165.713 394.811 165.713C395.67 165.713 396.433 165.584 397.099 165.326C397.786 165.047 398.388 164.671 398.903 164.198C399.44 163.704 399.902 163.135 400.289 162.49C400.676 161.824 401.02 161.115 401.32 160.363L402.062 160.879ZM396.97 153.757C396.97 153.026 396.873 152.307 396.68 151.598C396.508 150.867 396.218 150.233 395.81 149.696C395.423 149.138 394.929 148.687 394.327 148.343C393.726 147.999 393.006 147.827 392.168 147.827C391.33 147.827 390.589 147.999 389.944 148.343C389.3 148.665 388.741 149.105 388.269 149.664C387.817 150.201 387.452 150.835 387.173 151.565C386.915 152.274 386.754 153.005 386.689 153.757H396.97Z" fill="white"/>
<path d="M439.025 147.666C438.23 147.773 437.575 148.085 437.06 148.601C436.565 149.095 436.168 149.718 435.867 150.47L428.455 169.741H427.456L421.849 155.465L415.468 169.741H414.533L407.347 150.985C407.153 150.47 406.96 150.029 406.767 149.664C406.595 149.277 406.38 148.955 406.122 148.697C405.864 148.439 405.553 148.235 405.188 148.085C404.822 147.913 404.35 147.773 403.77 147.666V146.764H413.147V147.666C412.61 147.666 412.138 147.763 411.729 147.956C411.321 148.128 411.117 148.547 411.117 149.213C411.117 149.514 411.139 149.825 411.182 150.147C411.246 150.448 411.332 150.728 411.439 150.985L416.241 163.779L421.011 153.37C420.731 152.597 420.495 151.877 420.302 151.211C420.108 150.523 419.851 149.922 419.528 149.406C419.228 148.891 418.83 148.482 418.336 148.182C417.842 147.859 417.144 147.688 416.241 147.666V146.764H426.876V147.666C426.511 147.688 426.146 147.72 425.78 147.763C425.437 147.806 425.114 147.892 424.813 148.021C424.534 148.128 424.298 148.311 424.104 148.568C423.933 148.805 423.847 149.148 423.847 149.6C423.847 149.771 423.954 150.19 424.169 150.856C424.405 151.522 424.695 152.317 425.039 153.241C425.404 154.165 425.802 155.153 426.231 156.206C426.661 157.237 427.069 158.236 427.456 159.203C427.864 160.148 428.219 160.997 428.52 161.749C428.842 162.479 429.067 162.984 429.196 163.264L433.805 150.985C433.934 150.642 434.052 150.298 434.159 149.954C434.267 149.589 434.32 149.224 434.32 148.858C434.32 148.579 434.234 148.364 434.062 148.214C433.891 148.063 433.687 147.945 433.45 147.859C433.214 147.773 432.956 147.72 432.677 147.698C432.419 147.677 432.183 147.666 431.968 147.666V146.764H439.025V147.666Z" fill="white"/>
<path d="M460.069 160.879C459.897 162.039 459.554 163.156 459.038 164.23C458.544 165.283 457.899 166.218 457.104 167.034C456.31 167.851 455.386 168.506 454.333 169C453.302 169.494 452.174 169.741 450.949 169.741C449.359 169.741 447.952 169.408 446.728 168.742C445.524 168.076 444.515 167.195 443.698 166.1C442.882 165.004 442.27 163.769 441.861 162.394C441.453 160.997 441.249 159.568 441.249 158.107C441.249 156.496 441.453 154.971 441.861 153.531C442.291 152.07 442.925 150.792 443.763 149.696C444.622 148.601 445.696 147.73 446.985 147.086C448.296 146.42 449.821 146.087 451.562 146.087C452.894 146.087 454.086 146.312 455.139 146.764C456.191 147.215 457.083 147.849 457.813 148.665C458.544 149.46 459.103 150.416 459.489 151.533C459.876 152.629 460.069 153.832 460.069 155.143H444.697C444.697 156.346 444.858 157.57 445.181 158.816C445.503 160.062 445.997 161.201 446.663 162.232C447.329 163.242 448.167 164.08 449.177 164.746C450.208 165.391 451.422 165.713 452.818 165.713C453.678 165.713 454.44 165.584 455.106 165.326C455.794 165.047 456.396 164.671 456.911 164.198C457.448 163.704 457.91 163.135 458.297 162.49C458.684 161.824 459.027 161.115 459.328 160.363L460.069 160.879ZM454.978 153.757C454.978 153.026 454.881 152.307 454.688 151.598C454.516 150.867 454.226 150.233 453.817 149.696C453.431 149.138 452.937 148.687 452.335 148.343C451.733 147.999 451.014 147.827 450.176 147.827C449.338 147.827 448.597 147.999 447.952 148.343C447.308 148.665 446.749 149.105 446.276 149.664C445.825 150.201 445.46 150.835 445.181 151.565C444.923 152.274 444.762 153.005 444.697 153.757H454.978Z" fill="white"/>
<path d="M478.471 148.794C478.471 149.396 478.245 149.922 477.794 150.373C477.364 150.824 476.849 151.05 476.247 151.05C475.839 151.05 475.484 150.964 475.184 150.792C474.883 150.599 474.593 150.405 474.313 150.212C474.056 149.997 473.809 149.804 473.572 149.632C473.336 149.438 473.078 149.342 472.799 149.342C472.326 149.342 471.8 149.707 471.22 150.438C470.64 151.168 470.092 152.049 469.576 153.08V163.844C469.576 165.262 469.845 166.325 470.382 167.034C470.919 167.722 471.95 168.065 473.476 168.065V169H461.971V168.065C462.809 168.065 463.453 168.001 463.904 167.872C464.377 167.743 464.731 167.518 464.968 167.195C465.204 166.873 465.344 166.454 465.387 165.938C465.451 165.401 465.483 164.746 465.483 163.973V154.369C465.483 153.596 465.462 152.908 465.419 152.307C465.397 151.684 465.322 151.157 465.193 150.728C465.064 150.276 464.86 149.933 464.581 149.696C464.323 149.46 463.958 149.342 463.485 149.342C463.013 149.342 462.508 149.449 461.971 149.664L461.713 148.794L468.577 146.087H469.576V151.114C469.855 150.599 470.188 150.051 470.575 149.471C470.962 148.891 471.392 148.354 471.864 147.859C472.358 147.344 472.885 146.925 473.443 146.603C474.023 146.259 474.646 146.087 475.312 146.087C475.699 146.087 476.086 146.151 476.473 146.28C476.859 146.388 477.192 146.56 477.472 146.796C477.772 147.032 478.009 147.322 478.181 147.666C478.374 147.988 478.471 148.364 478.471 148.794Z" fill="white"/>
<path d="M496.163 163.393C496.163 164.359 495.938 165.229 495.486 166.003C495.035 166.776 494.455 167.442 493.746 168.001C493.037 168.56 492.231 168.989 491.329 169.29C490.448 169.591 489.567 169.741 488.687 169.741C488.171 169.741 487.634 169.655 487.075 169.483C486.538 169.333 486.012 169.161 485.496 168.968C484.98 168.774 484.486 168.603 484.014 168.452C483.562 168.28 483.144 168.194 482.757 168.194C482.649 168.194 482.553 168.248 482.467 168.355C482.381 168.441 482.295 168.549 482.209 168.678C482.145 168.785 482.08 168.903 482.016 169.032C481.973 169.161 481.93 169.258 481.887 169.322H481.049V161.395H481.887C482.059 162.275 482.327 163.124 482.692 163.94C483.058 164.757 483.52 165.487 484.078 166.132C484.658 166.755 485.324 167.26 486.076 167.646C486.85 168.012 487.72 168.194 488.687 168.194C489.181 168.194 489.653 168.13 490.104 168.001C490.577 167.851 490.985 167.636 491.329 167.356C491.694 167.077 491.984 166.733 492.199 166.325C492.414 165.917 492.521 165.444 492.521 164.907C492.521 163.876 492.231 163.017 491.651 162.329C491.093 161.62 490.384 160.997 489.524 160.46C488.665 159.923 487.741 159.418 486.753 158.945C485.765 158.451 484.841 157.903 483.981 157.302C483.122 156.679 482.402 155.959 481.822 155.143C481.264 154.305 480.984 153.273 480.984 152.049C480.984 151.018 481.188 150.137 481.597 149.406C482.005 148.654 482.542 148.031 483.208 147.537C483.874 147.043 484.637 146.678 485.496 146.441C486.377 146.205 487.269 146.087 488.171 146.087C488.601 146.087 489.02 146.13 489.428 146.216C489.836 146.302 490.244 146.409 490.652 146.538C491.061 146.646 491.458 146.742 491.845 146.828C492.253 146.914 492.661 146.957 493.069 146.957C493.327 146.957 493.531 146.871 493.682 146.699C493.854 146.527 493.993 146.323 494.101 146.087H494.971V153.692H494.101C493.929 152.897 493.682 152.135 493.359 151.404C493.059 150.652 492.672 149.986 492.199 149.406C491.727 148.826 491.146 148.364 490.459 148.021C489.793 147.655 489.009 147.473 488.106 147.473C487.634 147.473 487.14 147.516 486.624 147.602C486.13 147.688 485.668 147.838 485.238 148.053C484.83 148.268 484.486 148.579 484.207 148.987C483.949 149.374 483.82 149.868 483.82 150.47C483.82 151.544 484.121 152.425 484.723 153.112C485.346 153.778 486.108 154.369 487.011 154.885C487.935 155.379 488.923 155.852 489.976 156.303C491.05 156.754 492.038 157.28 492.94 157.882C493.864 158.462 494.627 159.192 495.229 160.073C495.852 160.933 496.163 162.039 496.163 163.393Z" fill="white"/>
<path d="M539.75 12.5455L539.75 168.546" stroke="white" stroke-width="2"/>
<path d="M539.751 9L540.746 12.5455L538.746 12.5455L539.751 9Z" fill="white"/>
<circle cx="539.75" cy="107.608" r="9.75" transform="rotate(-90 539.75 107.608)" fill="white"/>
<circle cx="539.75" cy="73.483" r="9.75" transform="rotate(-90 539.75 73.483)" fill="white"/>
<ellipse cx="539.75" cy="23.5142" rx="6.09375" ry="9.75" transform="rotate(-90 539.75 23.5142)" fill="white"/>
<rect x="532.438" y="92.983" width="4.875" height="14.625" transform="rotate(-90 532.438 92.983)" fill="white"/>
<rect x="530" y="58.8579" width="9.75" height="19.5" transform="rotate(-90 530 58.8579)" fill="white"/>
<rect x="530" y="44.2329" width="9.75" height="19.5" rx="2" transform="rotate(-90 530 44.2329)" fill="white"/>
</svg>
