<svg width="189" height="70" viewBox="0 0 189 70" fill="none" xmlns="http://www.w3.org/2000/svg">
<path d="M94.5 0L100.225 17.6201L118.752 17.6201L103.763 28.5099L109.489 46.1299L94.5 35.2401L79.5115 46.1299L85.2366 28.5099L70.248 17.6201L88.7749 17.6201L94.5 0Z" fill="white"/>
<path d="M25.5 19L31.2251 36.6201L49.7519 36.6201L34.7634 47.5099L40.4885 65.1299L25.5 54.2401L10.5115 65.1299L16.2366 47.5099L1.24806 36.6201L19.7749 36.6201L25.5 19Z" fill="white"/>
<path d="M163.5 19L169.225 36.6201L187.752 36.6201L172.763 47.5099L178.489 65.1299L163.5 54.2401L148.511 65.1299L154.237 47.5099L139.248 36.6201L157.775 36.6201L163.5 19Z" fill="white"/>
</svg>
